<svg fill="#23a443" version="1.1" id="Capa_1" xmlns="http://www.w3.org/2000/svg" xmlns:xlink="http://www.w3.org/1999/xlink" viewBox="0 0 439.875 439.875" xml:space="preserve" stroke="#23a443"><g id="SVGRepo_bgCarrier" stroke-width="0"></g><g id="SVGRepo_tracerCarrier" stroke-linecap="round" stroke-linejoin="round"></g><g id="SVGRepo_iconCarrier"> <g> <g> <path d="M162.562,420.75c10.566,0,19.125-8.559,19.125-19.125V177.528l28.688-14.965v-19.125v-38.25V9.562 c0-5.288-4.274-9.562-9.562-9.562s-9.562,4.274-9.562,9.562v95.625h-9.562V9.562c0-5.288-4.274-9.562-9.562-9.562 s-9.562,4.274-9.562,9.562v95.625H153V9.562C153,4.274,148.726,0,143.438,0s-9.562,4.274-9.562,9.562v95.625h-9.562V9.562 c0-5.288-4.274-9.562-9.562-9.562s-9.562,4.274-9.562,9.562v95.625V153v7.966l38.25,20.722v219.938 C143.438,412.191,151.996,420.75,162.562,420.75z"></path> <path d="M315.562,439.875c10.566,0,19.125-8.559,19.125-19.125V239.062v-28.688V31.479C334.688,14.095,320.593,0,303.208,0h-3.988 c-17.375,0-31.47,14.095-31.47,31.479v207.583h28.688V420.75C296.438,431.316,304.996,439.875,315.562,439.875z"></path> </g> </g> </g></svg>